# xmcd CD database file
# Copyright (C) 1995-1998 Ti Kan
#
# Track frame offsets:
#	150
#	12072
#	25696
#	38655
#	50540
#	55028
#	60093
#	74249
#	83208
#	96721
#	112563
#	117042
#	130810
#	143534
#	156501
#	172385
#	188019
#	202828
#	212751
#	220162
#	231222
#
# Disc length: 3179 seconds
#
# Revision: 1
# Processed by: cddbd v1.4b41PL1 Copyright (c) Steve Scherf et al.
# Submitted via: CDex 1.30
#
DISCID=1f0c6915
DTITLE=Mel Bay - 2000 Blues Guitar
DYEAR=2000
DGENRE=Blues
TTITLE0=Larry McCabe - Eight Hour Shift
TTITLE1=Dale Miller - Dale's Boogie Blues
TTITLE2=Dale Miller - Tampa Red
TTITLE3=Franco Morone - Fat Boy Blues
TTITLE4=Paul Musso - Bird Blues
TTITLE5=Paul Musso - Jazz Blues
TTITLE6=Bill Piburn - Frankie and Johnny
TTITLE7=Bucky Pizzarelli - Over and Over Blues
TTITLE8=Paul Rishell - Blues for Tampa Red
TTITLE9=Vincent Sadovsky - Chicago Joe
TTITLE10=Felix Schell - Emma
TTITLE11=Martin Simpson - New Kitchen Blues
TTITLE12=Fred Sokolow - Furry's Train
TTITLE13=Fred Sokolow - Mississippi Jump Time
TTITLE14=Stanley Sokolow - Long Island Expressway Blues
TTITLE15=Tim Sparks - Blues on Bartok Street
TTITLE16=John Standefer - What a Friend We Have In Jesus
TTITLE17=Jay Umble - Blue Line
TTITLE18=Phil Upchurch - B's Shuffle
TTITLE19=Paul Yandell - Clear Spring Blues
TTITLE20=John Zaradin - Dubuque Blues
EXTD=\nYEAR: 2000  ID3G:   0
EXTT0=
EXTT1=
EXTT2=
EXTT3=
EXTT4=
EXTT5=
EXTT6=
EXTT7=
EXTT8=
EXTT9=
EXTT10=
EXTT11=
EXTT12=
EXTT13=
EXTT14=
EXTT15=
EXTT16=
EXTT17=
EXTT18=
EXTT19=
EXTT20=
PLAYORDER=
